<svg width="128" height="128" xmlns="http://www.w3.org/2000/svg">

 <g>
  <title>background</title>
  <rect fill="none" id="canvas_background" height="130" width="130" y="-1" x="-1"/>
 </g>
 <g>
  <title>Layer 1</title>
  <g id="svg_1">
   <path id="svg_2" d="m40.413,12.754c-8.289,0 -15.008,6.719 -15.008,15.008l0,76.618c0,8.288 6.719,15.008 15.008,15.008c8.288,0 15.007,-6.719 15.007,-15.008l0,-76.619c0,-8.288 -6.719,-15.007 -15.007,-15.007z" fill="#070405"/>
   <path id="svg_3" d="m85.435,12.754c-8.288,0 -15.008,6.719 -15.008,15.008l0,76.618c0,8.288 6.719,15.008 15.008,15.008c8.289,0 15.008,-6.719 15.008,-15.008l0,-76.619c0,-8.288 -6.719,-15.007 -15.008,-15.007z" fill="#070405"/>
  </g>
 </g>
</svg>